<svg xmlns="http://www.w3.org/2000/svg" viewBox="0 0 245.371 220.736">
  <path d="M31.99 1.365C21.287 7.72.2 31.545 0 38.397v10.7C0 62.914 12.66 73.97 23.418 73.97c12.453 0 22.898-10.446 22.898-22.391 0 11.945 10.016 22.391 22.469 22.391 12.451 0 22.21-10.446 22.21-22.391 0 11.945 10.665 22.391 23.118 22.391h.225c12.451 0 23.116-10.446 23.116-22.391 0 11.945 9.758 22.391 22.209 22.391 12.451 0 22.469-10.446 22.469-22.391 0 11.945 10.444 22.391 22.897 22.391 10.758 0 23.418-11.055 23.418-24.873V38.397c-.2-6.852-21.287-30.677-31.99-37.032C182.805.53 156.89 0 122.687 0 88.485 0 65.567.528 31.99 1.365zm22.728 60.205c-.855 1.212-1.869 2.281-3.012 3.19a22.815 22.815 0 0 1-18.3 7.394 21.317 21.317 0 0 1-18.3-7.394 19.324 19.324 0 0 1-3.012-3.19h-.004c-.855 1.512-2.047 2.804-3.276 4.016a21.443 21.443 0 0 1-8.814 5.878v76.313c.009 21.671 22.238 33.259 45.011 34.333v.003h.001c22.772 1.073 44.999-10.661 45.007-32.332v-26.08c0-5.53 1.04-10.03 4.023-13.013 2.984-2.984 7.484-4.023 13.013-4.023 5.53 0 10.03 1.039 13.013 4.023 2.984 2.983 4.023 7.483 4.023 13.013v26.08c.008 21.671 22.235 33.405 45.007 32.332h.002v-.003c22.772-1.074 45.001-12.662 45.01-34.333V70.858a21.448 21.448 0 0 1-8.814-5.878c-1.23-1.212-2.421-2.504-3.276-4.016h-.004a19.395 19.395 0 0 1-3.012 3.19 21.317 21.317 0 0 1-18.3 7.394 22.814 22.814 0 0 1-18.3-7.394c-1.143-.909-2.157-1.978-3.012-3.19a22.694 22.694 0 0 1-3.012 3.19 22.936 22.936 0 0 1-18.267 7.394c-.172 0-.343-.008-.515-.013A22.918 22.918 0 0 1 98.37 64.76a22.68 22.68 0 0 1-3.012-3.19 22.694 22.694 0 0 1-3.012 3.19A22.815 22.815 0 0 1 74.045 72.154a21.317 21.317 0 0 1-18.3-7.394 22.694 22.694 0 0 1-3.012-3.19h-.015z" fill="currentColor"/>
</svg>
